<svg width="34" height="34" viewBox="0 0 38 38" fill="#404040" xmlns="http://www.w3.org/2000/svg" class="css-1effw3e e1cdw07j0"><path d="M19,0c-.28,0-.55,0-.82,0a18.43,18.43,0,0,0-2.7.3A18.89,18.89,0,0,0,6.29,4.92a18.44,18.44,0,0,0-1.85,1.9,18.92,18.92,0,0,0,2,26.36,18.9,18.9,0,0,0,25.9-.64,18.28,18.28,0,0,0,1.79-2A19,19,0,0,0,19,0ZM16.26,2.7l.64.37,8.79,16.82H15.47a17.22,17.22,0,0,0-7-13.62A16.46,16.46,0,0,1,16.26,2.7Zm-7.86,29A16.49,16.49,0,0,1,6.6,8.07a15.3,15.3,0,0,1,2,1.61A14.84,14.84,0,0,1,13,20.37C13,25.23,11.35,29.08,8.4,31.71Zm2.14,1.49a16.68,16.68,0,0,0,4.85-10.74H27l3.81,7.31h0l0,.77A16.39,16.39,0,0,1,10.54,33.2Zm22.29-5.12L19.45,2.47A16.52,16.52,0,0,1,32.83,28.08Z"></path></svg>